<?xml version="1.0" encoding="UTF-8" standalone="no"?>
<svg
   xmlns:dc="http://purl.org/dc/elements/1.1/"
   xmlns:cc="http://creativecommons.org/ns#"
   xmlns:rdf="http://www.w3.org/1999/02/22-rdf-syntax-ns#"
   xmlns:svg="http://www.w3.org/2000/svg"
   xmlns="http://www.w3.org/2000/svg"
   id="svg917"
   version="1.1"
   viewBox="0 0 75.40625 70.114585"
   height="70.114586mm"
   width="75.40625mm">
  <defs
     id="defs911" />
  <metadata
     id="metadata914">
    <rdf:RDF>
      <cc:Work
         rdf:about="">
        <dc:format>image/svg+xml</dc:format>
        <dc:type
           rdf:resource="http://purl.org/dc/dcmitype/StillImage" />
        <dc:title></dc:title>
      </cc:Work>
    </rdf:RDF>
  </metadata>
  <g
     transform="translate(-38.313444,-65.349831)"
     id="layer1">
    <g
       style="fill:#664ce3;fill-opacity:1"
       transform="matrix(0.9921875,0,0,0.98047662,928.40485,-430.0745)"
       id="g852">
      <circle
         style="fill:#664ce3;fill-opacity:1"
         cx="-875.29999"
         cy="528.09998"
         r="4.6999998"
         id="circle826" />
      <circle
         style="fill:#664ce3;fill-opacity:1"
         cx="-846.20001"
         cy="528.09998"
         r="4.6999998"
         id="circle828" />
      <path
         style="fill:#664ce3;fill-opacity:1"
         d="m -835.6,507.5 c -7.7,-1.4 -15.6,-2.2 -23.4,-2.2 -7.7,-0.1 -15.6,0.5 -23.4,1.8 -5.7,1 -11.4,6.5 -12.6,12.3 -1.4,7.2 -2.1,14.4 -2.1,21.6 0,7.2 0.7,14.4 2.1,21.7 1.2,5.7 6.8,11.2 12.6,12.3 7.3,1.2 14.8,1.8 22.1,1.8 0.4,0 0.8,0 1.2,0 7.8,-0.1 15.6,-0.8 23.4,-2.2 0,0 0,0 0,0 5.7,-1.1 11.3,-6.6 12.5,-12.3 1.4,-7 2.1,-14.2 2.1,-21.2 0,-7 -0.7,-14.2 -2.1,-21.2 -1.1,-5.8 -6.7,-11.3 -12.4,-12.4 z m 5.6,53.3 c -0.6,2.8 -4,6.2 -6.9,6.8 -7.3,1.3 -14.8,2.1 -22.1,2.1 -7.4,0.1 -14.8,-0.5 -22.1,-1.7 -2.9,-0.5 -6.3,-3.9 -6.9,-6.7 -1.3,-6.7 -2,-13.5 -2,-20.3 0,-6.7 0.7,-13.6 2,-20.2 0.6,-2.9 4,-6.3 6.9,-6.8 7,-1.1 14,-1.7 21,-1.7 0.4,0 0.8,0 1.2,0 7.4,0.1 14.8,0.8 22.1,2.1 2.9,0.6 6.4,3.9 6.9,6.7 1.3,6.6 1.9,13.3 1.9,19.9 0,6.6 -0.7,13.3 -2,19.8 z"
         id="path830" />
      <path
         style="fill:#664ce3;fill-opacity:1"
         d="m -844.4,547.3 c -1.4,-1.3 -3.5,-1.2 -4.8,0.1 l -3.5,3.5 -3.9,-3.6 c -1.4,-1.3 -3.5,-1.2 -4.8,0.1 l -3.6,3.6 -3.9,-3.6 c -1.4,-1.3 -3.5,-1.2 -4.8,0.1 l -6,5.9 c -1.4,1.4 -1.4,3.6 0,4.9 1.4,1.4 3.6,1.4 5,0 l 3.6,-3.5 3.9,3.6 c 0.7,0.6 1.5,0.9 2.4,0.9 0,0 0,0 0,0 0.9,0 1.8,-0.3 2.5,-1 l 3.6,-3.5 3.4,3.2 c 0.1,0.1 0.2,0.2 0.3,0.3 0.7,0.7 1.6,1 2.5,1 0,0 0,0 0.1,0 0.9,0 1.9,-0.4 2.6,-1.1 0.1,-0.1 0.2,-0.2 0.3,-0.4 l 3.1,-3.1 3.9,3.6 c 0.7,0.6 1.5,0.9 2.4,0.9 0.9,0 1.9,-0.4 2.6,-1.1 1.3,-1.4 1.2,-3.6 -0.2,-4.9 z"
         id="path832" />
    </g>
  </g>
</svg>
